<svg width="25" height="25" viewBox="0 0 25 25" fill="none" xmlns="http://www.w3.org/2000/svg">
<path d="M24.613 11.6094C24.4472 12.2015 24.3584 12.8054 24.24 13.4093C23.8552 15.3215 23.4822 17.2397 23.1033 19.158C23.0086 19.6197 22.7185 19.8566 22.2389 19.8625C21.9311 19.8625 21.6232 19.8625 21.2917 19.8625C21.3509 20.0223 21.4042 20.1703 21.4634 20.3124C21.9548 21.5912 22.4462 22.8641 22.9375 24.1429C23.0204 24.3561 23.0619 24.5633 22.9139 24.7705C22.7007 25.0606 22.2745 25.0606 22.0732 24.7646C22.008 24.6699 21.9607 24.5574 21.9192 24.4449C21.3568 22.9885 20.7884 21.5261 20.2319 20.0638C20.1727 19.9039 20.1017 19.8447 19.93 19.8566C19.6281 19.8743 19.332 19.8684 19.0301 19.8566C18.9235 19.8566 18.8761 19.8921 18.8406 19.9868C18.5505 20.7446 18.2664 21.5024 17.9644 22.2543C17.9289 22.3431 17.9585 22.4083 17.9822 22.4793C18.0946 22.7694 18.219 23.0654 18.3256 23.3555C18.5742 24.0127 18.3137 24.6699 17.7157 24.9126C17.1 25.1612 16.4488 24.8652 16.1824 24.2081C15.7739 23.1957 15.3772 22.1774 14.9746 21.1591C14.5247 20.0164 14.0747 18.8797 13.6188 17.7371C13.4945 17.4233 13.4531 17.1154 13.5715 16.7957C13.7313 16.3695 14.051 16.1504 14.5424 16.1504C15.6495 16.1445 16.7507 16.1504 17.8579 16.1504C18.7163 16.1504 19.0834 15.8603 19.3084 15.0314C19.5096 14.2618 19.7169 13.4981 19.93 12.7106C19.8353 12.758 19.8175 12.835 19.782 12.8942C19.4149 13.5454 19.0478 14.1967 18.6926 14.8538C18.4676 15.2683 18.1361 15.4636 17.6565 15.4577C16.4014 15.4459 15.1463 15.4577 13.8912 15.4518C13.4827 15.4518 13.1748 15.2446 13.0209 14.8716C12.8669 14.5045 12.9262 14.1434 13.1985 13.8355C13.4235 13.5869 13.7136 13.5217 14.0333 13.5217C15.022 13.5217 16.0048 13.5217 16.9935 13.5277C17.1533 13.5277 17.2481 13.4921 17.325 13.3382C17.6802 12.681 18.0473 12.0298 18.4084 11.3726C18.4203 11.3549 18.4262 11.3312 18.4144 11.3134C18.3966 11.2897 18.3788 11.3134 18.367 11.3253C18.0118 11.7397 17.6625 12.1541 17.248 12.6278C17.248 12.3199 17.248 12.0712 17.248 11.8285C17.2421 11.4851 17.2066 11.1358 17.3013 10.7924C17.4967 10.0998 18.065 9.63796 18.7814 9.60836C19.3261 9.5906 19.8708 9.55507 20.3918 9.76821C21.3331 10.1471 21.9429 11.0411 21.9488 12.0949C21.9488 13.4862 21.9429 14.8716 21.937 16.2629C21.937 16.3576 21.937 16.4523 21.9784 16.5471C22.0791 16.0497 22.1797 15.5524 22.2804 15.0551C22.5231 13.8178 22.7599 12.5804 23.0027 11.349C23.0856 10.9227 23.346 10.6622 23.7249 10.6148C24.0861 10.5675 24.3703 10.7688 24.6012 11.2187C24.613 11.3608 24.613 11.4851 24.613 11.6094Z" fill="white"/>
<path d="M5.98719 12.4088C6.17665 13.433 6.45488 14.4217 6.88115 15.3631C7.09429 15.8367 7.50873 16.0558 8.02381 16.0558C9.11316 16.0558 10.2025 16.0439 11.2918 16.0498C12.0615 16.0498 12.5707 16.559 12.5411 17.2813C12.5351 17.4411 12.4819 17.5891 12.4227 17.7371C11.576 19.8803 10.7294 22.0235 9.8828 24.1667C9.68743 24.6699 9.33813 24.9837 8.78753 24.9956C8.31982 25.0074 7.95277 24.7883 7.73371 24.3621C7.59754 24.1016 7.56792 23.8233 7.65673 23.5391C7.68041 23.4563 7.69817 23.3674 7.73961 23.2964C8.02379 22.8168 7.9942 22.3551 7.75739 21.8577C7.48505 21.2776 7.27784 20.6618 7.05287 20.0579C6.99958 19.9159 6.94038 19.8685 6.78645 19.8685C5.91023 19.8744 5.03399 19.8744 4.15777 19.8685C3.992 19.8685 3.92688 19.9218 3.8736 20.0698C3.31116 21.5558 2.73689 23.0359 2.16261 24.516C2.07381 24.7528 1.95539 24.96 1.66529 24.9896C1.23902 25.0311 0.972608 24.6463 1.13838 24.2081C1.35743 23.6161 1.59425 23.0359 1.81923 22.4498C2.12709 21.6565 2.42901 20.8631 2.73687 20.0698C2.76055 20.0165 2.80793 19.9573 2.77833 19.8922C2.15669 19.8093 1.96724 19.6317 1.84883 19.0219C1.36928 16.5708 0.88972 14.1198 0.410168 11.6687C0.309521 11.1537 0.552257 10.7452 1.03181 10.6445C1.47584 10.5498 1.87843 10.8458 1.97907 11.355C2.22181 12.5746 2.45863 13.7942 2.69545 15.0197C2.89082 16.0262 3.09211 17.0267 3.28156 18.0332C3.31708 18.2226 3.37629 18.2937 3.57758 18.2818C4.12226 18.2641 4.66695 18.2759 5.21754 18.2759C5.18794 18.1871 5.09913 18.193 5.034 18.1575C4.47157 17.8733 4.12819 17.4175 4.12227 16.7958C4.09859 15.144 4.08082 13.4981 4.11634 11.8464C4.14002 10.6504 5.19386 9.65581 6.3957 9.62028C6.67988 9.61436 6.96405 9.61436 7.24823 9.6262C8.12445 9.66172 8.7816 10.3367 8.80528 11.2129C8.81712 11.6155 8.80528 12.018 8.80528 12.5035C8.34941 11.9825 7.95868 11.4911 7.49097 11.0589C7.46729 11.1418 7.52057 11.1892 7.55017 11.2425C7.94092 11.9529 8.3435 12.6575 8.72833 13.3679C8.79937 13.4981 8.87634 13.5396 9.02435 13.5396C9.95385 13.5337 10.8893 13.5337 11.8188 13.5337C11.8898 13.5337 11.9609 13.5337 12.0319 13.5337C12.174 13.5396 12.3457 13.51 12.4404 13.5988C12.5648 13.7172 12.3871 13.8356 12.3516 13.954C12.2155 14.398 12.2332 14.8243 12.4463 15.2387C12.5174 15.3749 12.476 15.4223 12.3516 15.4341C12.2451 15.4519 12.1326 15.4519 12.0201 15.4578C10.8123 15.4578 9.60454 15.4519 8.39678 15.4637C7.91131 15.4696 7.57386 15.2624 7.34296 14.8421C6.89301 14.0251 6.43714 13.2199 5.98719 12.4088Z" fill="white"/>
<path d="M7.66847 8.86219C6.69752 8.83851 5.89827 8.21094 5.65553 7.27552C5.62001 7.13343 5.56672 7.0091 5.47199 6.89661C5.30622 6.70716 5.12862 6.73084 5.00429 6.95582C4.90956 7.12751 4.86219 7.32288 4.81482 7.51234C4.69642 7.99189 4.57802 8.47736 4.38265 8.93323C4.26424 9.19965 4.12216 9.45423 3.88534 9.63776C3.66628 9.80945 3.41761 9.85681 3.15119 9.76801C3.0683 9.7384 3.01504 9.69104 3.02096 9.59631C3.02688 9.51343 3.08607 9.46015 3.15711 9.45423C3.73139 9.44239 3.74324 8.98652 3.81428 8.60169C3.91493 8.03925 3.9327 7.47089 3.90902 6.90253C3.87941 6.02631 4.71418 5.35731 5.61408 5.58821C5.82129 5.64149 5.92193 5.59412 6.05218 5.42243C6.55542 4.74751 7.44349 4.45149 8.29011 4.70607C9.13081 4.95472 9.63996 5.53493 9.79389 6.40522C10.0248 7.70179 8.97096 8.90363 7.66847 8.86219Z" fill="white"/>
<path d="M20.4506 6.77835C20.421 7.96835 19.456 8.89785 18.2838 8.86825C17.1234 8.83865 16.182 7.87362 16.2116 6.72506C16.2412 5.5173 17.1826 4.6174 18.3489 4.62332C19.533 4.62332 20.4802 5.61203 20.4506 6.77835Z" fill="white"/>
<path d="M13.0236 0.990394C13.6838 0.0134128 14.5639 -0.250636 15.4089 0.242255C16.1394 0.664734 16.4123 1.5009 16.1306 2.41627C15.9018 3.1644 15.4441 3.76291 14.9336 4.33502C14.4583 4.87192 13.9126 5.32961 13.3405 5.76969C13.1381 5.92812 12.9532 5.97213 12.742 5.8049C11.7738 5.05676 10.876 4.247 10.2423 3.1732C9.96066 2.68911 9.76702 2.17862 9.79342 1.60651C9.83743 0.840767 10.3568 0.224654 11.0521 0.0574231C11.7914 -0.11861 12.4515 0.154248 12.8916 0.823172C12.9356 0.875982 12.9708 0.919981 13.0236 0.990394Z" fill="white"/>
<path d="M12.9318 18.4711C13.3285 19.4776 13.7133 20.4545 14.104 21.4372C14.1395 21.532 14.1573 21.6089 14.1159 21.7037C13.7725 22.5503 13.4469 23.4028 13.1035 24.2435C12.8963 24.7468 12.4404 25.0309 11.9549 24.9895C11.4221 24.9421 11.0314 24.6224 10.9011 24.1133C10.836 23.8587 10.8656 23.616 10.9603 23.3732C11.5997 21.7629 12.2332 20.1584 12.8667 18.5481C12.8785 18.5303 12.9022 18.5126 12.9318 18.4711Z" fill="white"/>
</svg>
