<svg width="24" height="24" viewBox="0 0 24 24" fill="none" xmlns="http://www.w3.org/2000/svg">
<path d="M15.1663 12.3893V16.3507C15.1663 16.7011 15.1273 17.032 15.0397 17.3337C14.6796 18.7645 13.4922 19.6599 11.857 19.6599H9.20961L6.2702 21.6163C5.83221 21.918 5.24823 21.5968 5.24823 21.0712V19.6599C4.25545 19.6599 3.42813 19.329 2.85388 18.7547C2.26989 18.1708 1.93896 17.3434 1.93896 16.3507V12.3893C1.93896 10.54 3.08747 9.26495 4.8589 9.09948C4.98543 9.08975 5.11196 9.08002 5.24823 9.08002H11.857C13.8426 9.08002 15.1663 10.4037 15.1663 12.3893Z" fill="#007ECE"/>
<path d="M17.2686 15.5048C18.5048 15.5048 19.5462 15.096 20.2665 14.366C20.9964 13.6458 21.4052 12.6043 21.4052 11.3682V6.40434C21.4052 4.11705 19.5559 2.26776 17.2686 2.26776H8.99549C6.70821 2.26776 4.85892 4.11705 4.85892 6.40434V7.13432C4.85892 7.40685 5.07305 7.62098 5.34557 7.62098H11.857C14.4947 7.62098 16.6263 9.75253 16.6263 12.3902V15.0182C16.6263 15.2907 16.8404 15.5048 17.1129 15.5048H17.2686V15.5048Z" fill="#007ECE"/>
</svg>
